<?xml version="1.0" encoding="UTF-8" standalone="no"?>
<!DOCTYPE svg PUBLIC "-//W3C//DTD SVG 1.1//EN" "http://www.w3.org/Graphics/SVG/1.1/DTD/svg11.dtd">
<svg version="1.1" xmlns="http://www.w3.org/2000/svg" xmlns:xlink="http://www.w3.org/1999/xlink" preserveAspectRatio="xMidYMid meet" viewBox="0 0 640 640" width="640" height="640"><defs><path d="M350.02 308.42L351.33 308.71L352.62 309.11L353.89 309.63L355.12 310.26L356.3 310.99L357.43 311.84L358.49 312.78L359.48 313.83L360.38 314.98L454.48 446.18L454.48 446.18L455.27 447.4L455.92 448.64L456.45 449.91L456.84 451.18L457.1 452.47L457.24 453.74L457.25 455L457.13 456.24L456.89 457.44L456.53 458.61L456.04 459.72L455.43 460.77L454.71 461.75L453.87 462.65L452.91 463.47L451.84 464.19L450.68 464.79L449.47 465.25L448.22 465.59L446.94 465.79L445.63 465.87L444.32 465.83L443 465.66L441.69 465.37L440.4 464.97L439.13 464.45L437.9 463.82L436.72 463.09L435.59 462.24L434.53 461.3L433.54 460.25L432.64 459.1L338.54 327.89L337.75 326.68L337.1 325.44L336.57 324.17L336.18 322.89L335.92 321.61L335.78 320.34L335.77 319.08L335.89 317.84L336.13 316.64L336.49 315.47L336.98 314.36L337.58 313.31L338.31 312.33L339.15 311.43L340.11 310.61L341.18 309.89L342.34 309.29L343.55 308.82L344.8 308.49L346.08 308.29L347.39 308.21L348.7 308.25L350.02 308.42Z" id="c1TGTuXjTx"></path><path d="M167.78 253.05L363.92 138.55L454.12 265.97L257.98 380.47L167.78 253.05Z" id="a1ooe5evgG"></path><path d="M507.49 503.03L507.55 503.83L507.51 504.68L507.37 505.56L507.13 506.47L506.78 507.42L506.34 508.38L505.81 509.37L505.19 510.38L504.47 511.4L503.68 512.43L502.79 513.46L501.83 514.5L500.79 515.54L499.68 516.57L498.49 517.6L497.23 518.61L495.9 519.61L494.51 520.58L493.05 521.54L491.53 522.47L489.99 523.35L488.43 524.18L486.89 524.94L485.35 525.64L483.82 526.27L482.3 526.85L480.81 527.36L479.34 527.8L477.91 528.18L476.51 528.49L475.15 528.74L473.84 528.92L472.57 529.03L471.36 529.07L470.21 529.05L469.12 528.95L468.1 528.78L467.15 528.55L466.29 528.24L465.5 527.85L464.8 527.4L464.2 526.87L463.69 526.27L463.69 526.27L391.19 425.18L391.19 425.18L390.79 424.52L390.5 423.8L390.33 423.03L390.26 422.23L390.3 421.38L390.44 420.5L390.69 419.58L391.03 418.64L391.47 417.68L392 416.69L392.63 415.68L393.34 414.66L394.14 413.63L395.02 412.6L395.98 411.56L397.02 410.52L398.14 409.49L399.33 408.46L400.59 407.45L401.92 406.45L403.31 405.47L404.77 404.52L406.28 403.59L407.83 402.71L409.38 401.88L410.93 401.12L412.47 400.42L414 399.79L415.51 399.21L417 398.7L418.47 398.26L419.91 397.88L421.3 397.57L422.66 397.32L423.98 397.14L425.24 397.03L426.46 396.99L427.61 397.01L428.7 397.11L429.71 397.28L430.66 397.51L431.53 397.82L432.31 398.2L433.01 398.66L433.62 399.19L434.13 399.79L506.62 500.88L507.02 501.54L507.31 502.26L507.49 503.03Z" id="ajamhSUX"></path><path d="M159.3 241.28L160.61 241.56L161.9 241.97L163.17 242.48L164.4 243.11L165.58 243.85L166.71 244.69L167.77 245.64L168.76 246.69L169.66 247.83L263.76 379.04L263.76 379.04L264.55 380.25L265.2 381.5L265.73 382.76L266.12 384.04L266.38 385.32L266.52 386.6L266.53 387.86L266.41 389.1L266.17 390.3L265.81 391.46L265.32 392.57L264.71 393.62L263.99 394.61L263.15 395.51L262.19 396.33L261.12 397.04L259.96 397.64L258.75 398.11L257.5 398.44L256.22 398.65L254.91 398.73L253.6 398.68L252.28 398.51L250.97 398.23L249.68 397.82L248.41 397.31L247.18 396.68L246 395.94L244.87 395.1L243.81 394.15L242.82 393.1L241.92 391.96L147.82 260.75L147.03 259.54L146.38 258.29L145.85 257.03L145.46 255.75L145.2 254.47L145.06 253.19L145.05 251.93L145.17 250.7L145.41 249.49L145.77 248.33L146.26 247.22L146.87 246.17L147.59 245.19L148.43 244.28L149.39 243.47L150.46 242.75L151.62 242.15L152.83 241.68L154.08 241.35L155.36 241.14L156.67 241.06L157.98 241.11L159.3 241.28Z" id="i3GGmQ7hg"></path><path d="M369.69 119.91L371 120.19L372.29 120.6L373.56 121.11L374.79 121.74L375.97 122.48L377.1 123.32L378.16 124.27L379.15 125.32L380.05 126.46L474.14 257.67L474.14 257.67L474.93 258.88L475.59 260.13L476.11 261.39L476.51 262.67L476.77 263.95L476.9 265.23L476.91 266.49L476.8 267.72L476.56 268.93L476.19 270.09L475.71 271.2L475.1 272.25L474.38 273.23L473.53 274.14L472.58 274.95L471.5 275.67L470.34 276.27L469.13 276.74L467.88 277.07L466.6 277.28L465.3 277.36L463.98 277.31L462.67 277.14L461.36 276.86L460.06 276.45L458.8 275.94L457.57 275.31L456.38 274.57L455.25 273.73L454.19 272.78L453.2 271.73L452.3 270.59L452.3 270.58L358.21 139.38L358.21 139.38L357.42 138.17L356.76 136.92L356.24 135.66L355.85 134.38L355.58 133.1L355.45 131.82L355.44 130.56L355.56 129.32L355.8 128.12L356.16 126.96L356.65 125.85L357.25 124.8L357.98 123.81L358.82 122.91L359.78 122.09L360.85 121.37L362.01 120.77L363.22 120.31L364.47 119.97L365.75 119.77L367.05 119.69L368.37 119.74L369.69 119.91Z" id="hwkYjOBjq"></path><path d="M502.4 251.01L502.79 252.24L503.07 253.48L503.23 254.72L503.27 255.96L503.21 257.19L503.03 258.41L502.74 259.59L502.34 260.75L501.83 261.87L501.22 262.94L500.5 263.96L499.68 264.91L498.76 265.81L497.74 266.62L496.61 267.36L495.42 268L494.18 268.52L492.91 268.92L491.61 269.22L490.29 269.4L488.97 269.48L487.64 269.44L486.31 269.31L485 269.07L483.71 268.73L482.44 268.28L481.21 267.74L480.02 267.11L478.89 266.38L477.81 265.55L476.79 264.64L475.85 263.63L474.99 262.54L475 262.54L374.23 122.02L373.47 120.87L372.84 119.68L372.33 118.47L371.93 117.24L371.65 116L371.49 114.75L371.45 113.51L371.51 112.28L371.69 111.07L371.98 109.88L372.38 108.73L372.89 107.61L373.5 106.54L374.22 105.52L375.04 104.56L375.96 103.67L376.99 102.85L378.11 102.12L379.31 101.48L380.54 100.96L381.81 100.55L383.11 100.26L384.43 100.08L385.75 100L387.08 100.03L388.41 100.17L389.72 100.41L391.01 100.75L392.28 101.19L393.51 101.73L394.7 102.37L395.84 103.1L396.92 103.92L397.93 104.84L398.87 105.85L399.73 106.94L500.5 247.45L501.25 248.61L501.88 249.8L502.4 251.01Z" id="b1r6BBVrOp"></path><path d="M134.86 249.33L136.17 249.57L137.47 249.92L138.73 250.36L139.96 250.9L141.15 251.53L142.29 252.27L143.37 253.09L144.38 254.01L145.32 255.01L146.18 256.11L246.95 396.62L246.95 396.62L247.7 397.78L248.34 398.96L248.85 400.18L249.24 401.41L249.52 402.65L249.68 403.89L249.73 405.13L249.66 406.36L249.48 407.57L249.19 408.76L248.79 409.92L248.29 411.03L247.67 412.1L246.96 413.12L246.14 414.08L245.21 414.97L244.19 415.79L243.07 416.53L241.87 417.16L240.63 417.68L239.36 418.09L238.06 418.38L236.75 418.57L235.42 418.64L234.09 418.61L232.77 418.47L231.45 418.23L230.16 417.89L228.89 417.45L227.66 416.91L226.48 416.27L225.34 415.54L224.26 414.72L223.25 413.8L222.31 412.8L221.45 411.7L221.45 411.7L120.68 271.19L120.68 271.19L119.92 270.03L119.29 268.84L118.78 267.63L118.38 266.4L118.11 265.16L117.95 263.92L117.9 262.68L117.97 261.45L118.15 260.24L118.44 259.05L118.83 257.89L119.34 256.78L119.95 255.7L120.67 254.69L121.49 253.73L122.41 252.84L123.44 252.02L124.56 251.28L125.76 250.65L127 250.13L128.27 249.72L129.56 249.43L130.88 249.24L132.21 249.17L133.54 249.2L134.86 249.33Z" id="a1Dha6kYae"></path></defs><g><g><g><use xlink:href="#c1TGTuXjTx" opacity="1" fill="#edeef0" fill-opacity="1"></use><g><use xlink:href="#c1TGTuXjTx" opacity="1" fill-opacity="0" stroke="#1f1613" stroke-width="4" stroke-opacity="1"></use></g></g><g><g><filter id="shadow14638759" x="158.78" y="129.55" width="305.34" height="260.92" filterUnits="userSpaceOnUse" primitiveUnits="userSpaceOnUse"><feFlood></feFlood><feComposite in2="SourceAlpha" operator="in"></feComposite><feGaussianBlur stdDeviation="1"></feGaussianBlur><feOffset dx="1" dy="1" result="afterOffset"></feOffset><feFlood flood-color="#000000" flood-opacity="0.5"></feFlood><feComposite in2="afterOffset" operator="in"></feComposite><feMorphology operator="dilate" radius="1"></feMorphology><feComposite in2="SourceAlpha" operator="out"></feComposite></filter><path d="M167.78 253.05L363.92 138.55L454.12 265.97L257.98 380.47L167.78 253.05Z" id="cg7iOsR9C" fill="white" fill-opacity="1" filter="url(#shadow14638759)"></path></g><use xlink:href="#a1ooe5evgG" opacity="1" fill="#db481d" fill-opacity="1"></use><g><use xlink:href="#a1ooe5evgG" opacity="1" fill-opacity="0" stroke="#1f1613" stroke-width="4" stroke-opacity="1"></use></g><g><filter id="shadow11903389" x="158.78" y="129.55" width="305.34" height="260.92" filterUnits="userSpaceOnUse" primitiveUnits="userSpaceOnUse"><feFlood></feFlood><feComposite in2="SourceAlpha" operator="out"></feComposite><feGaussianBlur stdDeviation="1"></feGaussianBlur><feOffset dx="1" dy="1" result="afterOffset"></feOffset><feFlood flood-color="#ffffff" flood-opacity="0.8"></feFlood><feComposite in2="afterOffset" operator="in"></feComposite><feMorphology operator="dilate" radius="1"></feMorphology><feComposite in2="SourceAlpha" operator="in"></feComposite></filter><path d="M167.78 253.05L363.92 138.55L454.12 265.97L257.98 380.47L167.78 253.05Z" id="bkeHAw4Uy" fill="white" fill-opacity="1" filter="url(#shadow11903389)"></path></g></g><g><use xlink:href="#ajamhSUX" opacity="1" fill="#1f90d2" fill-opacity="1"></use><g><use xlink:href="#ajamhSUX" opacity="1" fill-opacity="0" stroke="#1f1613" stroke-width="4" stroke-opacity="1"></use></g></g><g><use xlink:href="#i3GGmQ7hg" opacity="1" fill="#edeef0" fill-opacity="1"></use><g><use xlink:href="#i3GGmQ7hg" opacity="1" fill-opacity="0" stroke="#1f1613" stroke-width="4" stroke-opacity="1"></use></g></g><g><use xlink:href="#hwkYjOBjq" opacity="1" fill="#edeef0" fill-opacity="1"></use><g><use xlink:href="#hwkYjOBjq" opacity="1" fill-opacity="0" stroke="#1f1613" stroke-width="4" stroke-opacity="1"></use></g></g><g><use xlink:href="#b1r6BBVrOp" opacity="1" fill="#e8cb3b" fill-opacity="1"></use><g><use xlink:href="#b1r6BBVrOp" opacity="1" fill-opacity="0" stroke="#1f1613" stroke-width="4" stroke-opacity="1"></use></g></g><g><use xlink:href="#a1Dha6kYae" opacity="1" fill="#e8cb3b" fill-opacity="1"></use><g><use xlink:href="#a1Dha6kYae" opacity="1" fill-opacity="0" stroke="#1f1613" stroke-width="4" stroke-opacity="1"></use></g></g></g></g></svg>