<?xml version="1.0" encoding="UTF-8" standalone="no"?>
<!DOCTYPE svg PUBLIC "-//W3C//DTD SVG 1.1//EN" "http://www.w3.org/Graphics/SVG/1.1/DTD/svg11.dtd">
<svg version="1.1" xmlns="http://www.w3.org/2000/svg" xmlns:xlink="http://www.w3.org/1999/xlink" preserveAspectRatio="xMidYMid meet" viewBox="0 0 1200 800" width="1200" height="800"><defs><path d="M381.74 519.91L383.27 520.02L384.78 520.17L386.26 520.37L387.73 520.6L389.17 520.87L390.59 521.18L391.97 521.53L393.34 521.92L394.67 522.34L395.97 522.79L397.24 523.28L398.48 523.81L399.68 524.36L400.85 524.95L401.98 525.57L403.07 526.21L404.12 526.89L405.13 527.59L406.09 528.32L407.02 529.07L407.89 529.85L408.72 530.66L409.51 531.48L410.24 532.33L410.92 533.2L411.55 534.09L412.13 535L412.65 535.93L413.11 536.88L413.47 537.73L413.77 537.62L415.07 537.16L416.4 536.74L417.76 536.36L419.15 536.01L420.57 535.7L422.01 535.43L423.47 535.19L424.96 535L426.47 534.85L428 534.74L429.54 534.67L431.1 534.65L432.67 534.67L434.21 534.74L435.74 534.85L437.25 535L438.74 535.19L440.2 535.43L441.64 535.7L443.06 536.01L444.45 536.36L445.81 536.74L447.14 537.16L448.44 537.62L449.71 538.11L450.95 538.63L452.15 539.19L453.32 539.77L454.45 540.39L455.54 541.04L456.59 541.71L457.6 542.41L458.56 543.14L459.49 543.9L460.36 544.68L461.19 545.48L461.98 546.31L462.71 547.16L463.39 548.03L463.94 548.8L464.88 548.24L466.01 547.62L467.18 547.04L468.38 546.48L469.62 545.96L470.89 545.47L472.19 545.01L473.52 544.59L474.89 544.21L476.28 543.86L477.69 543.55L479.13 543.27L480.6 543.04L482.08 542.85L483.59 542.7L485.12 542.59L486.66 542.52L488.23 542.5L489.79 542.52L491.34 542.59L492.86 542.7L494.37 542.85L495.86 543.04L497.32 543.27L498.76 543.55L500.18 543.86L501.57 544.21L502.93 544.59L504.26 545.01L505.56 545.47L506.83 545.96L508.07 546.48L509.27 547.04L510.44 547.62L511.57 548.24L512.66 548.89L513.71 549.56L514.72 550.26L515.69 550.99L516.61 551.75L517.49 552.53L518.32 553.33L519.1 554.16L519.83 555.01L520.51 555.88L521.12 556.73L521.38 556.52L522.34 555.79L523.35 555.08L524.4 554.41L525.49 553.76L526.62 553.15L527.79 552.56L528.99 552L530.23 551.48L531.5 550.99L532.8 550.54L534.13 550.11L535.5 549.73L536.89 549.38L538.3 549.07L539.74 548.8L541.21 548.56L542.69 548.37L544.2 548.22L545.73 548.11L547.27 548.04L548.84 548.02L550.4 548.04L551.95 548.11L553.47 548.22L554.98 548.37L556.47 548.56L557.93 548.8L559.37 549.07L560.79 549.38L562.18 549.73L563.54 550.11L564.87 550.54L566.17 550.99L567.44 551.48L568.68 552L569.88 552.56L571.05 553.15L572.18 553.76L573.27 554.41L574.32 555.08L575.33 555.79L576.3 556.52L577.22 557.27L578.1 558.05L578.93 558.85L579.71 559.68L579.93 559.94L580.6 559.08L581.34 558.23L582.12 557.4L582.95 556.6L583.83 555.82L584.75 555.06L585.72 554.33L586.73 553.63L587.78 552.96L588.87 552.31L590 551.69L591.16 551.11L592.37 550.55L593.6 550.03L594.87 549.54L596.17 549.08L597.51 548.66L598.87 548.28L600.26 547.93L601.67 547.62L603.11 547.34L604.58 547.11L606.07 546.92L607.57 546.77L609.1 546.66L610.65 546.59L612.21 546.57L613.77 546.59L615.32 546.66L616.85 546.77L618.35 546.92L619.84 547.11L621.3 547.34L622.75 547.62L624.16 547.93L625.55 548.28L626.91 548.66L628.24 549.08L629.55 549.54L630.82 550.03L632.05 550.55L633.26 551.11L634.42 551.69L635.55 552.31L636.64 552.96L637.69 553.63L638.7 554.33L639.67 555.06L640.59 555.82L641.47 556.6L642.3 557.4L643.08 558.23L643.81 559.08L644.5 559.95L645.13 560.84L645.36 561.2L645.87 560.3L646.44 559.39L647.07 558.49L647.76 557.62L648.49 556.77L649.27 555.95L650.1 555.14L650.98 554.36L651.9 553.61L652.87 552.88L653.88 552.18L654.93 551.5L656.02 550.86L657.15 550.24L658.31 549.65L659.52 549.1L660.75 548.57L662.02 548.08L663.33 547.63L664.66 547.21L666.02 546.82L667.41 546.47L668.82 546.16L670.27 545.89L671.73 545.66L673.22 545.46L674.72 545.31L676.25 545.2L677.8 545.14L679.36 545.12L680.92 545.14L682.47 545.2L684 545.31L685.5 545.46L686.99 545.66L688.46 545.89L689.9 546.16L691.31 546.47L692.7 546.82L694.06 547.21L695.4 547.63L696.7 548.08L697.97 548.57L699.2 549.1L700.41 549.65L701.57 550.24L702.7 550.86L703.79 551.5L704.84 552.18L705.85 552.88L706.82 553.61L707.74 554.36L708.62 555.14L709.45 555.95L710.23 556.77L710.97 557.62L711.3 558.04L711.85 557.33L712.59 556.48L713.37 555.66L714.2 554.85L715.08 554.07L716 553.32L716.97 552.59L717.98 551.89L719.03 551.21L720.12 550.57L721.25 549.95L722.41 549.36L723.62 548.81L724.85 548.28L726.12 547.79L727.42 547.34L728.76 546.92L730.12 546.53L731.51 546.18L732.92 545.87L734.36 545.6L735.83 545.37L737.32 545.17L738.82 545.02L740.35 544.91L741.9 544.85L743.46 544.82L745.02 544.85L746.57 544.91L748.1 545.02L749.6 545.17L751.09 545.37L752.55 545.6L754 545.87L755.41 546.18L756.8 546.53L758.16 546.92L759.49 547.34L760.8 547.79L762.07 548.28L763.3 548.81L764.51 549.36L765.67 549.95L766.8 550.57L767.89 551.21L768.94 551.89L769.95 552.59L770.92 553.32L771.84 554.07L772.72 554.85L772.8 554.93L773.7 554.19L774.67 553.46L775.68 552.76L776.73 552.08L777.82 551.44L778.95 550.82L780.12 550.23L781.32 549.68L782.56 549.16L783.83 548.67L785.13 548.21L786.46 547.79L787.82 547.4L789.21 547.06L790.63 546.74L792.07 546.47L793.53 546.24L795.02 546.05L796.53 545.89L798.05 545.79L799.6 545.72L801.16 545.7L802.73 545.72L804.27 545.79L805.8 545.89L807.31 546.05L808.79 546.24L810.26 546.47L811.7 546.74L813.11 547.06L814.5 547.4L815.87 547.79L817.2 548.21L818.5 548.67L819.77 549.16L821.01 549.68L822.21 550.23L822.85 550.55L822.82 549.74L822.85 548.69L822.95 547.66L823.12 546.64L823.34 545.63L823.63 544.64L823.98 543.66L824.39 542.69L824.85 541.75L825.37 540.82L825.95 539.91L826.58 539.02L827.26 538.15L827.99 537.3L828.78 536.47L829.61 535.67L830.48 534.89L831.41 534.13L832.37 533.4L833.38 532.7L834.43 532.03L835.52 531.38L836.65 530.76L837.82 530.18L839.02 529.62L840.26 529.1L841.53 528.61L842.83 528.15L844.16 527.73L845.53 527.35L846.91 527L848.33 526.69L849.77 526.41L851.24 526.18L852.72 525.99L854.23 525.84L855.76 525.73L857.3 525.66L858.87 525.64L860.43 525.66L861.97 525.73L863.5 525.84L865.01 525.99L866.5 526.18L867.96 526.41L869.4 526.69L870.82 527L872.21 527.35L873.57 527.73L874.9 528.15L876.2 528.61L877.47 529.1L878.71 529.62L879.91 530.18L881.08 530.76L882.21 531.38L883.3 532.03L884.35 532.7L885.36 533.4L886.33 534.13L887.25 534.89L888.13 535.67L888.96 536.47L889.74 537.3L890.47 538.15L891.15 539.02L891.78 539.91L892.36 540.82L892.88 541.75L893.35 542.69L893.75 543.66L894.1 544.64L894.39 545.63L894.62 546.64L894.78 547.66L894.88 548.69L894.91 549.74L894.88 550.78L894.78 551.82L894.62 552.84L894.39 553.85L894.1 554.84L893.75 555.82L893.35 556.78L892.88 557.73L892.36 558.66L891.78 559.57L891.15 560.46L890.47 561.33L889.74 562.18L888.96 563L888.13 563.81L887.25 564.59L886.33 565.34L885.36 566.07L884.35 566.78L883.3 567.45L882.21 568.1L881.08 568.71L879.91 569.3L878.71 569.85L877.47 570.38L876.2 570.87L874.9 571.32L873.57 571.74L872.21 572.13L870.82 572.48L869.4 572.79L867.96 573.06L866.5 573.3L865.01 573.49L863.5 573.64L861.97 573.75L860.43 573.81L858.87 573.84L857.3 573.81L855.76 573.75L854.23 573.64L852.72 573.49L851.24 573.3L849.77 573.06L848.33 572.79L846.91 572.48L845.53 572.13L844.16 571.74L842.83 571.32L841.53 570.87L840.26 570.38L839.02 569.85L837.82 569.3L837.18 568.98L837.21 569.8L837.18 570.84L837.08 571.87L836.91 572.9L836.69 573.9L836.4 574.9L836.05 575.88L835.64 576.84L835.18 577.79L834.66 578.72L834.08 579.63L833.45 580.52L832.77 581.39L832.04 582.24L831.25 583.06L830.42 583.87L829.55 584.65L828.62 585.4L827.66 586.13L826.65 586.83L825.6 587.51L824.51 588.15L823.38 588.77L822.21 589.36L821.01 589.91L819.77 590.44L818.5 590.93L817.2 591.38L815.87 591.8L814.5 592.19L813.11 592.54L811.7 592.85L810.26 593.12L808.79 593.35L807.31 593.55L805.8 593.7L804.27 593.81L802.73 593.87L801.16 593.9L799.6 593.87L798.05 593.81L796.53 593.7L795.02 593.55L793.53 593.35L792.07 593.12L790.63 592.85L789.21 592.54L787.82 592.19L786.46 591.8L785.13 591.38L783.83 590.93L782.56 590.44L781.32 589.91L780.12 589.36L778.95 588.77L777.82 588.15L776.73 587.51L775.68 586.83L774.67 586.13L773.7 585.4L772.78 584.65L771.9 583.87L771.82 583.79L770.92 584.53L769.95 585.26L768.94 585.96L767.89 586.64L766.8 587.28L765.67 587.9L764.51 588.49L763.3 589.04L762.07 589.56L760.8 590.05L759.49 590.51L758.16 590.93L756.8 591.32L755.41 591.66L754 591.98L752.55 592.25L751.09 592.48L749.6 592.67L748.1 592.83L746.57 592.93L745.02 593L743.46 593.02L741.9 593L740.35 592.93L738.82 592.83L737.32 592.67L735.83 592.48L734.36 592.25L732.92 591.98L731.51 591.66L730.12 591.32L728.76 590.93L727.42 590.51L726.12 590.05L724.85 589.56L723.62 589.04L722.41 588.49L721.25 587.9L720.12 587.28L719.03 586.64L717.98 585.96L716.97 585.26L716 584.53L715.08 583.77L714.2 582.99L713.37 582.19L712.59 581.36L711.85 580.51L711.52 580.09L710.97 580.81L710.23 581.65L709.45 582.48L708.62 583.29L707.74 584.07L706.82 584.82L705.85 585.55L704.84 586.25L703.79 586.93L702.7 587.57L701.57 588.19L700.41 588.78L699.2 589.33L697.97 589.85L696.7 590.34L695.4 590.8L694.06 591.22L692.7 591.61L691.31 591.96L689.9 592.27L688.46 592.54L686.99 592.77L685.5 592.96L684 593.12L682.47 593.23L680.92 593.29L679.36 593.31L677.8 593.29L676.25 593.23L674.72 593.12L673.22 592.96L671.73 592.77L670.27 592.54L668.82 592.27L667.41 591.96L666.02 591.61L664.66 591.22L663.33 590.8L662.02 590.34L660.75 589.85L659.52 589.33L658.31 588.78L657.15 588.19L656.02 587.57L654.93 586.93L653.88 586.25L652.87 585.55L651.9 584.82L650.98 584.07L650.1 583.29L649.27 582.48L648.49 581.65L647.76 580.81L647.07 579.94L646.44 579.04L646.21 578.68L645.7 579.59L645.13 580.5L644.5 581.39L643.81 582.26L643.08 583.11L642.3 583.94L641.47 584.74L640.59 585.52L639.67 586.27L638.7 587L637.69 587.71L636.64 588.38L635.55 589.03L634.42 589.64L633.26 590.23L632.05 590.79L630.82 591.31L629.55 591.8L628.24 592.25L626.91 592.68L625.55 593.06L624.16 593.41L622.75 593.72L621.3 593.99L619.84 594.23L618.35 594.42L616.85 594.57L615.32 594.68L613.77 594.75L612.21 594.77L610.65 594.75L609.1 594.68L607.57 594.57L606.07 594.42L604.58 594.23L603.11 593.99L601.67 593.72L600.26 593.41L598.87 593.06L597.51 592.68L596.17 592.25L594.87 591.8L593.6 591.31L592.37 590.79L591.16 590.23L590 589.64L588.87 589.03L587.78 588.38L586.73 587.71L585.72 587L584.75 586.27L583.83 585.52L582.95 584.74L582.12 583.94L581.34 583.11L581.12 582.85L580.44 583.71L579.71 584.56L578.93 585.39L578.1 586.19L577.22 586.97L576.3 587.73L575.33 588.46L574.32 589.16L573.27 589.83L572.18 590.48L571.05 591.1L569.88 591.68L568.68 592.24L567.44 592.76L566.17 593.25L564.87 593.71L563.54 594.13L562.18 594.51L560.79 594.86L559.37 595.17L557.93 595.45L556.47 595.68L554.98 595.87L553.47 596.02L551.95 596.13L550.4 596.2L548.84 596.22L547.27 596.2L545.73 596.13L544.2 596.02L542.69 595.87L541.21 595.68L539.74 595.45L538.3 595.17L536.89 594.86L535.5 594.51L534.13 594.13L532.8 593.71L531.5 593.25L530.23 592.76L528.99 592.24L527.79 591.68L526.62 591.1L525.49 590.48L524.4 589.83L523.35 589.16L522.34 588.46L521.38 587.73L520.45 586.97L519.58 586.19L518.75 585.39L517.96 584.56L517.23 583.71L516.55 582.84L515.95 581.99L515.69 582.2L514.72 582.93L513.71 583.64L512.66 584.31L511.57 584.96L510.44 585.57L509.27 586.16L508.07 586.72L506.83 587.24L505.56 587.73L504.26 588.18L502.93 588.61L501.57 588.99L500.18 589.34L498.76 589.65L497.32 589.92L495.86 590.16L494.37 590.35L492.86 590.5L491.34 590.61L489.79 590.68L488.23 590.7L486.66 590.68L485.12 590.61L483.59 590.5L482.08 590.35L480.6 590.16L479.13 589.92L477.69 589.65L476.28 589.34L474.89 588.99L473.52 588.61L472.19 588.18L470.89 587.73L469.62 587.24L468.38 586.72L467.18 586.16L466.01 585.57L464.88 584.96L463.79 584.31L462.74 583.64L461.73 582.93L460.77 582.2L459.84 581.45L458.97 580.67L458.14 579.87L457.35 579.04L456.62 578.19L455.94 577.32L455.39 576.55L454.45 577.11L453.32 577.72L452.15 578.31L450.95 578.87L449.71 579.39L448.44 579.88L447.14 580.34L445.81 580.76L444.45 581.14L443.06 581.49L441.64 581.8L440.2 582.07L438.74 582.31L437.25 582.5L435.74 582.65L434.21 582.76L432.67 582.83L431.1 582.85L429.54 582.83L428 582.76L426.47 582.65L424.96 582.5L423.47 582.31L422.01 582.07L420.57 581.8L419.15 581.49L417.76 581.14L416.4 580.76L415.07 580.34L413.77 579.88L412.5 579.39L411.26 578.87L410.06 578.31L408.89 577.72L407.76 577.11L406.67 576.46L405.62 575.79L404.61 575.08L403.64 574.36L402.72 573.6L401.85 572.82L401.01 572.02L400.23 571.19L399.5 570.34L398.82 569.47L398.19 568.58L397.61 567.67L397.09 566.74L396.62 565.79L396.26 564.94L395.97 565.05L394.67 565.51L393.34 565.93L391.97 566.32L390.59 566.66L389.17 566.98L387.73 567.25L386.26 567.48L384.78 567.67L383.27 567.83L381.74 567.93L380.2 568L378.63 568.02L377.07 568L375.53 567.93L374 567.83L372.49 567.67L371 567.48L369.54 567.25L368.1 566.98L366.68 566.66L365.29 566.32L363.93 565.93L362.6 565.51L361.3 565.05L360.03 564.56L358.79 564.04L357.59 563.49L356.42 562.9L355.29 562.28L354.2 561.64L353.15 560.96L352.14 560.26L351.17 559.53L350.25 558.77L349.37 557.99L348.54 557.19L347.76 556.36L347.03 555.51L346.35 554.64L345.72 553.75L345.14 552.84L344.62 551.91L344.15 550.97L343.75 550L343.4 549.03L343.11 548.03L342.88 547.02L342.72 546L342.62 544.97L342.59 543.92L342.62 542.88L342.72 541.85L342.88 540.82L343.11 539.82L343.4 538.82L343.75 537.84L344.15 536.88L344.62 535.93L345.14 535L345.72 534.09L346.35 533.2L347.03 532.33L347.76 531.48L348.54 530.66L349.37 529.85L350.25 529.07L351.17 528.32L352.14 527.59L353.15 526.89L354.2 526.21L355.29 525.57L356.42 524.95L357.59 524.36L358.79 523.81L360.03 523.28L361.3 522.79L362.6 522.34L363.93 521.92L365.29 521.53L366.68 521.18L368.1 520.87L369.54 520.6L371 520.37L372.49 520.17L374 520.02L375.53 519.91L377.07 519.85L378.63 519.82L380.2 519.85L381.74 519.91Z" id="afefC39dl"></path><path d="M361.53 527.48L363.12 527.6L364.7 527.77L366.25 527.98L367.78 528.24L369.29 528.55L370.78 528.89L372.24 529.28L373.67 529.71L375.08 530.18L376.45 530.69L377.79 531.24L379.11 531.82L380.39 532.44L381.63 533.1L382.84 533.79L384.01 534.51L385.15 535.27L386.24 536.06L387.29 536.88L388.3 537.72L389.27 538.6L390.19 539.51L391.07 540.44L391.9 541.4L392.68 542.38L393.41 543.39L394.09 544.41L394.72 545.47L395.29 546.54L395.81 547.63L396.27 548.74L396.5 549.38L397.68 548.9L399.05 548.39L400.46 547.92L401.89 547.49L403.35 547.1L404.83 546.76L406.34 546.45L407.88 546.19L409.43 545.98L411 545.81L412.6 545.69L414.21 545.62L415.84 545.59L417.47 545.62L419.08 545.69L420.67 545.81L422.25 545.98L423.8 546.19L425.34 546.45L426.85 546.76L428.33 547.1L429.79 547.49L431.22 547.92L432.63 548.39L434 548.9L435.35 549.45L436.66 550.03L437.94 550.65L439.18 551.31L440.39 552L441.56 552.72L442.7 553.48L443.79 554.27L444.84 555.09L445.85 555.93L446.82 556.81L447.74 557.72L448.62 558.65L449.45 559.61L450.23 560.59L450.96 561.6L451.64 562.63L451.85 562.98L452.77 562.36L453.94 561.64L455.15 560.95L456.39 560.29L457.67 559.67L458.99 559.09L460.33 558.54L461.71 558.03L463.11 557.56L464.54 557.13L466 556.74L467.49 556.4L469 556.09L470.53 555.84L472.08 555.62L473.66 555.45L475.25 555.33L476.86 555.26L478.49 555.23L480.12 555.26L481.73 555.33L483.33 555.45L484.9 555.62L486.46 555.84L487.99 556.09L489.5 556.4L490.98 556.74L492.44 557.13L493.88 557.56L495.28 558.03L496.66 558.54L498 559.09L499.31 559.67L500.59 560.29L501.84 560.95L503.05 561.64L504.22 562.36L505.35 563.12L506.45 563.91L507.5 564.73L508.51 565.58L509.48 566.45L510.4 567.36L511.27 568.29L512.1 569.25L512.88 570.23L513.62 571.24L514.29 572.27L514.56 572.72L514.96 572.36L515.97 571.51L517.02 570.69L518.12 569.9L519.25 569.15L520.42 568.42L521.63 567.73L522.87 567.08L524.15 566.46L525.47 565.87L526.81 565.32L528.19 564.82L529.59 564.35L531.02 563.92L532.48 563.53L533.97 563.18L535.48 562.88L537.01 562.62L538.56 562.41L540.14 562.24L541.73 562.12L543.35 562.04L544.97 562.02L546.6 562.04L548.21 562.12L549.81 562.24L551.38 562.41L552.94 562.62L554.47 562.88L555.98 563.18L557.46 563.53L558.92 563.92L560.36 564.35L561.76 564.82L563.14 565.32L564.48 565.87L565.79 566.46L567.07 567.08L568.32 567.73L569.53 568.42L570.7 569.15L571.83 569.9L572.93 570.69L573.98 571.51L574.99 572.36L575.96 573.24L576.88 574.14L577.75 575.07L578.58 576.03L579.08 576.66L579.36 576.24L580.09 575.23L580.87 574.25L581.7 573.29L582.58 572.36L583.5 571.45L584.47 570.57L585.48 569.73L586.53 568.91L587.62 568.12L588.76 567.36L589.93 566.64L591.14 565.95L592.38 565.29L593.66 564.67L594.98 564.09L596.32 563.54L597.69 563.03L599.1 562.56L600.53 562.13L601.99 561.74L603.48 561.4L604.99 561.09L606.52 560.83L608.07 560.62L609.65 560.45L611.24 560.33L612.85 560.26L614.48 560.23L616.11 560.26L617.72 560.33L619.32 560.45L620.89 560.62L622.45 560.83L623.98 561.09L625.49 561.4L626.97 561.74L628.43 562.13L629.87 562.56L631.27 563.03L632.65 563.54L633.99 564.09L635.3 564.67L636.58 565.29L637.83 565.95L639.04 566.64L640.21 567.36L641.34 568.12L642.43 568.91L643.49 569.73L644.5 570.57L645.47 571.45L646.39 572.36L647.26 573.29L648.09 574.25L648.87 575.23L649.6 576.24L650.28 577.27L650.85 578.21L651.14 577.6L651.71 576.53L652.34 575.48L653.02 574.45L653.75 573.44L654.53 572.46L655.36 571.5L656.23 570.57L657.15 569.67L658.12 568.79L659.13 567.94L660.19 567.12L661.28 566.33L662.41 565.58L663.58 564.85L664.79 564.16L666.04 563.51L667.32 562.89L668.63 562.3L669.97 561.75L671.35 561.24L672.75 560.78L674.19 560.35L675.65 559.96L677.13 559.61L678.64 559.31L680.17 559.05L681.73 558.84L683.3 558.67L684.9 558.55L686.51 558.47L688.14 558.45L689.77 558.47L691.38 558.55L692.97 558.67L694.55 558.84L696.1 559.05L697.63 559.31L699.14 559.61L700.63 559.96L702.09 560.35L703.52 560.78L704.93 561.24L706.3 561.75L707.64 562.3L708.96 562.89L710.24 563.51L711.48 564.16L712.69 564.85L713.86 565.58L714.99 566.33L716.09 567.12L717.14 567.94L718.15 568.79L719.12 569.67L720.04 570.57L720.92 571.5L721.75 572.46L722.53 573.44L723.17 574.33L723.32 574.09L724.05 573.09L724.83 572.1L725.66 571.15L726.54 570.21L727.46 569.31L728.43 568.43L729.44 567.58L730.49 566.76L731.59 565.98L732.72 565.22L733.89 564.5L735.1 563.8L736.34 563.15L737.62 562.53L738.94 561.94L740.28 561.4L741.66 560.89L743.06 560.42L744.49 559.99L745.95 559.6L747.44 559.25L748.95 558.95L750.48 558.69L752.03 558.48L753.61 558.31L755.2 558.19L756.81 558.12L758.44 558.09L760.07 558.12L761.68 558.19L763.28 558.31L764.85 558.48L766.41 558.69L767.94 558.95L769.45 559.25L770.93 559.6L772.39 559.99L773.83 560.42L775.23 560.89L776.61 561.4L777.95 561.94L779.26 562.53L780.54 563.15L781.79 563.8L783 564.5L784.17 565.22L785.3 565.98L786.4 566.76L787.45 567.58L788.46 568.43L789.43 569.31L790.35 570.21L790.62 570.51L790.75 570.38L791.72 569.5L792.73 568.65L793.78 567.84L794.88 567.05L796.01 566.29L797.18 565.57L798.39 564.88L799.64 564.22L800.91 563.6L802.23 563.01L803.57 562.47L804.95 561.96L806.35 561.49L807.78 561.06L809.24 560.67L810.73 560.33L812.24 560.02L813.77 559.76L815.33 559.55L816.9 559.38L818.49 559.26L820.11 559.19L821.74 559.16L823.36 559.19L824.98 559.26L826.57 559.38L828.14 559.55L829.7 559.76L831.23 560.02L832.74 560.33L834.23 560.67L835.69 561.06L837.12 561.49L838.52 561.96L839.9 562.47L841.24 563.01L842.56 563.6L843.83 564.22L845.08 564.88L845.52 565.13L845.49 564.13L845.52 562.91L845.62 561.7L845.78 560.51L846.01 559.33L846.29 558.16L846.64 557.02L847.04 555.89L847.51 554.77L848.02 553.68L848.6 552.61L849.23 551.56L849.91 550.53L850.64 549.52L851.42 548.54L852.25 547.58L853.12 546.65L854.04 545.74L855.01 544.87L856.02 544.02L857.07 543.2L858.17 542.41L859.3 541.65L860.47 540.93L861.68 540.24L862.93 539.58L864.21 538.96L865.52 538.38L866.86 537.83L868.24 537.32L869.64 536.85L871.08 536.42L872.54 536.03L874.02 535.69L875.53 535.38L877.06 535.13L878.62 534.91L880.19 534.74L881.79 534.62L883.4 534.55L885.03 534.52L886.66 534.55L888.27 534.62L889.86 534.74L891.44 534.91L892.99 535.13L894.52 535.38L896.03 535.69L897.52 536.03L898.98 536.42L900.41 536.85L901.81 537.32L903.19 537.83L904.53 538.38L905.85 538.96L907.13 539.58L908.37 540.24L909.58 540.93L910.75 541.65L911.88 542.41L912.98 543.2L914.03 544.02L915.04 544.87L916.01 545.74L916.93 546.65L917.81 547.58L918.64 548.54L919.42 549.52L920.15 550.53L920.83 551.56L921.45 552.61L922.03 553.68L922.55 554.77L923.01 555.89L923.41 557.02L923.76 558.16L924.05 559.33L924.27 560.51L924.43 561.7L924.53 562.91L924.56 564.13L924.53 565.34L924.43 566.55L924.27 567.75L924.05 568.92L923.76 570.09L923.41 571.24L923.01 572.37L922.55 573.48L922.03 574.57L921.45 575.64L920.83 576.69L920.15 577.72L919.42 578.73L918.64 579.71L917.81 580.67L916.93 581.6L916.01 582.51L915.04 583.39L914.03 584.23L912.98 585.05L911.88 585.84L910.75 586.6L909.58 587.32L908.37 588.01L907.13 588.67L905.85 589.29L904.53 589.87L903.19 590.42L901.81 590.93L900.41 591.4L898.98 591.83L897.52 592.22L896.03 592.56L894.52 592.87L892.99 593.12L891.44 593.34L889.86 593.51L888.27 593.63L886.66 593.7L885.03 593.73L883.4 593.7L881.79 593.63L880.19 593.51L878.62 593.34L877.06 593.12L875.53 592.87L874.02 592.56L872.54 592.22L871.08 591.83L869.64 591.4L868.24 590.93L866.86 590.42L865.52 589.87L864.21 589.29L862.93 588.67L861.68 588.01L861.25 587.76L861.27 588.76L861.24 589.98L861.14 591.19L860.98 592.38L860.75 593.56L860.47 594.73L860.12 595.87L859.72 597L859.26 598.12L858.74 599.21L858.16 600.28L857.54 601.33L856.86 602.36L856.13 603.37L855.35 604.35L854.52 605.31L853.64 606.24L852.72 607.15L851.75 608.02L850.74 608.87L849.69 609.69L848.59 610.48L847.46 611.24L846.29 611.96L845.08 612.65L843.83 613.31L842.56 613.93L841.24 614.51L839.9 615.06L838.52 615.57L837.12 616.04L835.69 616.47L834.23 616.85L832.74 617.2L831.23 617.5L829.7 617.76L828.14 617.98L826.57 618.14L824.98 618.27L823.36 618.34L821.74 618.36L820.11 618.34L818.49 618.27L816.9 618.14L815.33 617.98L813.77 617.76L812.24 617.5L810.73 617.2L809.24 616.85L807.78 616.47L806.35 616.04L804.95 615.57L803.57 615.06L802.23 614.51L800.91 613.93L799.64 613.31L798.39 612.65L797.18 611.96L796.01 611.24L794.88 610.48L793.78 609.69L792.73 608.87L791.72 608.02L790.75 607.15L789.83 606.24L789.56 605.95L789.43 606.07L788.46 606.95L787.45 607.8L786.4 608.62L785.3 609.41L784.17 610.16L783 610.89L781.79 611.58L780.54 612.23L779.26 612.86L777.95 613.44L776.61 613.99L775.23 614.5L773.83 614.97L772.39 615.39L770.93 615.78L769.45 616.13L767.94 616.43L766.41 616.69L764.85 616.91L763.28 617.07L761.68 617.19L760.07 617.27L758.44 617.29L756.81 617.27L755.2 617.19L753.61 617.07L752.03 616.91L750.48 616.69L748.95 616.43L747.44 616.13L745.95 615.78L744.49 615.39L743.06 614.97L741.66 614.5L740.28 613.99L738.94 613.44L737.62 612.86L736.34 612.23L735.1 611.58L733.89 610.89L732.72 610.16L731.59 609.41L730.49 608.62L729.44 607.8L728.43 606.95L727.46 606.07L726.54 605.17L725.66 604.24L724.83 603.28L724.05 602.3L723.41 601.42L723.26 601.65L722.53 602.65L721.75 603.64L720.92 604.59L720.04 605.53L719.12 606.43L718.15 607.31L717.14 608.16L716.09 608.98L714.99 609.76L713.86 610.52L712.69 611.25L711.48 611.94L710.24 612.59L708.96 613.21L707.64 613.8L706.3 614.34L704.93 614.85L703.52 615.32L702.09 615.75L700.63 616.14L699.14 616.49L697.63 616.79L696.1 617.05L694.55 617.26L692.97 617.43L691.38 617.55L689.77 617.63L688.14 617.65L686.51 617.63L684.9 617.55L683.3 617.43L681.73 617.26L680.17 617.05L678.64 616.79L677.13 616.49L675.65 616.14L674.19 615.75L672.75 615.32L671.35 614.85L669.97 614.34L668.63 613.8L667.32 613.21L666.04 612.59L664.79 611.94L663.58 611.25L662.41 610.52L661.28 609.76L660.19 608.98L659.13 608.16L658.12 607.31L657.15 606.43L656.23 605.53L655.36 604.59L654.53 603.64L653.75 602.65L653.02 601.65L652.34 600.62L651.77 599.67L651.48 600.28L650.91 601.35L650.28 602.4L649.6 603.43L648.87 604.44L648.09 605.42L647.26 606.38L646.39 607.31L645.47 608.22L644.5 609.09L643.49 609.94L642.43 610.76L641.34 611.55L640.21 612.31L639.04 613.03L637.83 613.72L636.58 614.38L635.3 615L633.99 615.58L632.65 616.13L631.27 616.64L629.87 617.11L628.43 617.54L626.97 617.93L625.49 618.27L623.98 618.57L622.45 618.83L620.89 619.05L619.32 619.22L617.72 619.34L616.11 619.41L614.48 619.44L612.85 619.41L611.24 619.34L609.65 619.22L608.07 619.05L606.52 618.83L604.99 618.57L603.48 618.27L601.99 617.93L600.53 617.54L599.1 617.11L597.69 616.64L596.32 616.13L594.98 615.58L593.66 615L592.38 614.38L591.14 613.72L589.93 613.03L588.76 612.31L587.62 611.55L586.53 610.76L585.48 609.94L584.47 609.09L583.5 608.22L582.58 607.31L581.7 606.38L580.87 605.42L580.38 604.79L580.1 605.22L579.36 606.22L578.58 607.21L577.75 608.17L576.88 609.1L575.96 610L574.99 610.88L573.98 611.73L572.93 612.55L571.83 613.34L570.7 614.09L569.53 614.82L568.32 615.51L567.07 616.16L565.79 616.78L564.48 617.37L563.14 617.91L561.76 618.42L560.36 618.89L558.92 619.32L557.46 619.71L555.98 620.06L554.47 620.36L552.94 620.62L551.38 620.83L549.81 621L548.21 621.12L546.6 621.2L544.97 621.22L543.35 621.2L541.73 621.12L540.14 621L538.56 620.83L537.01 620.62L535.48 620.36L533.97 620.06L532.48 619.71L531.02 619.32L529.59 618.89L528.19 618.42L526.81 617.91L525.47 617.37L524.15 616.78L522.87 616.16L521.63 615.51L520.42 614.82L519.25 614.09L518.12 613.34L517.02 612.55L515.97 611.73L514.96 610.88L513.99 610L513.07 609.1L512.19 608.17L511.36 607.21L510.58 606.22L509.85 605.22L509.17 604.19L508.9 603.74L508.51 604.1L507.5 604.94L506.45 605.76L505.35 606.55L504.22 607.31L503.05 608.03L501.84 608.72L500.59 609.38L499.31 610L498 610.58L496.66 611.13L495.28 611.64L493.88 612.11L492.44 612.54L490.98 612.93L489.5 613.27L487.99 613.58L486.46 613.83L484.9 614.05L483.33 614.22L481.73 614.34L480.12 614.41L478.49 614.44L476.86 614.41L475.25 614.34L473.66 614.22L472.08 614.05L470.53 613.83L469 613.58L467.49 613.27L466 612.93L464.54 612.54L463.11 612.11L461.71 611.64L460.33 611.13L458.99 610.58L457.67 610L456.39 609.38L455.15 608.72L453.94 608.03L452.77 607.31L451.64 606.55L450.54 605.76L449.49 604.94L448.48 604.1L447.51 603.22L446.59 602.31L445.71 601.38L444.88 600.42L444.1 599.44L443.37 598.43L442.69 597.4L442.48 597.05L441.56 597.67L440.39 598.39L439.18 599.08L437.94 599.74L436.66 600.36L435.35 600.94L434 601.49L432.63 602L431.22 602.47L429.79 602.9L428.33 603.29L426.85 603.63L425.34 603.93L423.8 604.19L422.25 604.41L420.67 604.58L419.08 604.7L417.47 604.77L415.84 604.8L414.21 604.77L412.6 604.7L411 604.58L409.43 604.41L407.88 604.19L406.34 603.93L404.83 603.63L403.35 603.29L401.89 602.9L400.46 602.47L399.05 602L397.68 601.49L396.33 600.94L395.02 600.36L393.74 599.74L392.5 599.08L391.29 598.39L390.12 597.67L388.98 596.91L387.89 596.12L386.84 595.3L385.82 594.45L384.86 593.58L383.93 592.67L383.06 591.74L382.23 590.78L381.45 589.8L380.72 588.79L380.04 587.76L379.41 586.71L378.84 585.64L378.32 584.55L377.86 583.43L377.63 582.8L376.45 583.28L375.08 583.79L373.67 584.26L372.24 584.69L370.78 585.08L369.29 585.42L367.78 585.72L366.25 585.98L364.7 586.2L363.12 586.37L361.53 586.49L359.92 586.56L358.29 586.59L356.66 586.56L355.05 586.49L353.45 586.37L351.88 586.2L350.32 585.98L348.79 585.72L347.28 585.42L345.8 585.08L344.34 584.69L342.9 584.26L341.5 583.79L340.12 583.28L338.78 582.73L337.47 582.15L336.19 581.53L334.94 580.87L333.73 580.18L332.56 579.46L331.43 578.7L330.34 577.91L329.28 577.09L328.27 576.24L327.31 575.37L326.38 574.46L325.51 573.53L324.68 572.57L323.9 571.59L323.17 570.58L322.49 569.55L321.86 568.5L321.29 567.43L320.77 566.34L320.3 565.22L319.9 564.09L319.55 562.95L319.27 561.78L319.04 560.6L318.88 559.41L318.78 558.2L318.75 556.98L318.78 555.76L318.88 554.56L319.04 553.36L319.27 552.19L319.55 551.02L319.9 549.87L320.3 548.74L320.77 547.63L321.29 546.54L321.86 545.47L322.49 544.41L323.17 543.39L323.9 542.38L324.68 541.4L325.51 540.44L326.38 539.51L327.31 538.6L328.27 537.72L329.28 536.88L330.34 536.06L331.43 535.27L332.56 534.51L333.73 533.79L334.94 533.1L336.19 532.44L337.47 531.82L338.78 531.24L340.12 530.69L341.5 530.18L342.9 529.71L344.34 529.28L345.8 528.89L347.28 528.55L348.79 528.24L350.32 527.98L351.88 527.77L353.45 527.6L355.05 527.48L356.66 527.41L358.29 527.38L359.92 527.41L361.53 527.48Z" id="a1Z2mG5nls"></path><path d="M312.97 543.76L314.85 543.88L316.7 544.05L318.54 544.26L320.35 544.52L322.13 544.83L323.88 545.17L325.6 545.56L327.29 545.99L328.95 546.46L330.57 546.97L332.16 547.51L333.7 548.1L335.21 548.72L336.68 549.38L338.11 550.07L339.49 550.79L340.83 551.55L342.12 552.34L343.36 553.15L344.55 554L345.69 554.88L346.78 555.79L347.81 556.72L348.79 557.68L349.71 558.66L350.58 559.66L351.38 560.69L352.12 561.75L352.79 562.82L353.41 563.91L353.95 565.02L354.22 565.66L355.61 565.18L357.23 564.67L358.89 564.2L360.58 563.77L362.3 563.38L364.05 563.04L365.83 562.73L367.64 562.47L369.48 562.26L371.33 562.09L373.21 561.97L375.12 561.9L377.04 561.87L378.96 561.9L380.86 561.97L382.74 562.09L384.6 562.26L386.43 562.47L388.24 562.73L390.02 563.04L391.77 563.38L393.49 563.77L395.18 564.2L396.84 564.67L398.46 565.18L400.05 565.73L401.6 566.31L403.11 566.93L404.58 567.59L406 568.28L407.38 569L408.72 569.76L410.01 570.55L411.25 571.37L412.45 572.21L413.59 573.09L414.67 574L415.71 574.93L416.69 575.89L417.61 576.87L418.47 577.87L419.27 578.9L419.52 579.26L420.6 578.64L421.98 577.92L423.41 577.23L424.88 576.57L426.39 575.95L427.94 575.37L429.52 574.82L431.14 574.31L432.8 573.84L434.49 573.41L436.21 573.02L437.97 572.68L439.75 572.37L441.55 572.11L443.39 571.9L445.25 571.73L447.13 571.61L449.03 571.54L450.95 571.51L452.87 571.54L454.77 571.61L456.65 571.73L458.51 571.9L460.34 572.11L462.15 572.37L463.93 572.68L465.69 573.02L467.41 573.41L469.1 573.84L470.75 574.31L472.38 574.82L473.96 575.37L475.51 575.95L477.02 576.57L478.49 577.23L479.91 577.92L481.3 578.64L482.63 579.4L483.92 580.19L485.17 581.01L486.36 581.85L487.5 582.73L488.59 583.64L489.62 584.57L490.6 585.53L491.52 586.51L492.38 587.52L493.18 588.55L493.5 589L493.97 588.64L495.16 587.79L496.4 586.97L497.69 586.18L499.03 585.43L500.41 584.7L501.84 584.01L503.31 583.36L504.82 582.73L506.36 582.15L507.95 581.6L509.57 581.09L511.23 580.62L512.92 580.2L514.64 579.81L516.39 579.46L518.17 579.16L519.98 578.9L521.82 578.68L523.67 578.52L525.55 578.4L527.46 578.32L529.38 578.3L531.3 578.32L533.2 578.4L535.08 578.52L536.94 578.68L538.77 578.9L540.58 579.16L542.36 579.46L544.11 579.81L545.83 580.2L547.52 580.62L549.18 581.09L550.8 581.6L552.39 582.15L553.94 582.73L555.45 583.36L556.92 584.01L558.34 584.7L559.72 585.43L561.06 586.18L562.35 586.97L563.59 587.79L564.79 588.64L565.93 589.52L567.01 590.42L568.05 591.35L569.03 592.31L569.61 592.94L569.94 592.51L570.81 591.51L571.73 590.53L572.7 589.57L573.74 588.64L574.83 587.73L575.97 586.85L577.16 586L578.4 585.19L579.69 584.4L581.03 583.64L582.41 582.92L583.84 582.23L585.31 581.57L586.82 580.95L588.36 580.37L589.95 579.82L591.57 579.31L593.23 578.84L594.92 578.41L596.64 578.02L598.39 577.68L600.17 577.37L601.98 577.11L603.82 576.9L605.67 576.73L607.55 576.61L609.46 576.54L611.38 576.51L613.3 576.54L615.2 576.61L617.08 576.73L618.94 576.9L620.77 577.11L622.58 577.37L624.36 577.68L626.11 578.02L627.83 578.41L629.52 578.84L631.18 579.31L632.8 579.82L634.39 580.37L635.94 580.95L637.45 581.57L638.92 582.23L640.34 582.92L641.72 583.64L643.06 584.4L644.35 585.19L645.59 586L646.79 586.85L647.93 587.73L649.01 588.64L650.05 589.57L651.03 590.53L651.95 591.51L652.81 592.51L653.61 593.54L654.28 594.49L654.62 593.88L655.29 592.81L656.03 591.76L656.83 590.73L657.7 589.72L658.62 588.74L659.59 587.78L660.63 586.85L661.72 585.95L662.86 585.07L664.05 584.22L665.29 583.4L666.58 582.61L667.92 581.86L669.3 581.13L670.73 580.44L672.2 579.78L673.71 579.16L675.25 578.58L676.84 578.03L678.46 577.52L680.12 577.05L681.81 576.62L683.53 576.24L685.28 575.89L687.06 575.59L688.87 575.33L690.71 575.11L692.56 574.95L694.44 574.82L696.35 574.75L698.27 574.73L700.19 574.75L702.09 574.82L703.97 574.95L705.83 575.11L707.66 575.33L709.47 575.59L711.25 575.89L713 576.24L714.72 576.62L716.41 577.05L718.07 577.52L719.69 578.03L721.28 578.58L722.83 579.16L724.34 579.78L725.81 580.44L727.23 581.13L728.61 581.86L729.95 582.61L731.24 583.4L732.48 584.22L733.68 585.07L734.82 585.95L735.9 586.85L736.94 587.78L737.92 588.74L738.84 589.72L739.59 590.61L739.77 590.37L740.64 589.37L741.56 588.38L742.54 587.43L743.57 586.49L744.66 585.59L745.8 584.71L746.99 583.86L748.23 583.04L749.52 582.26L750.86 581.5L752.24 580.77L753.67 580.08L755.14 579.43L756.65 578.81L758.19 578.22L759.78 577.68L761.4 577.17L763.06 576.7L764.75 576.27L766.47 575.88L768.22 575.53L770 575.23L771.81 574.97L773.65 574.76L775.5 574.59L777.38 574.47L779.29 574.39L781.21 574.37L783.13 574.39L785.03 574.47L786.91 574.59L788.77 574.76L790.6 574.97L792.41 575.23L794.19 575.53L795.94 575.88L797.67 576.27L799.36 576.7L801.01 577.17L802.63 577.68L804.22 578.22L805.77 578.81L807.28 579.43L808.75 580.08L810.17 580.77L811.55 581.5L812.89 582.26L814.18 583.04L815.42 583.86L816.62 584.71L817.76 585.59L818.85 586.49L819.17 586.79L819.32 586.66L820.46 585.78L821.66 584.93L822.9 584.11L824.19 583.33L825.53 582.57L826.91 581.85L828.33 581.16L829.8 580.5L831.31 579.88L832.86 579.29L834.45 578.75L836.07 578.24L837.72 577.77L839.41 577.34L841.14 576.95L842.89 576.6L844.67 576.3L846.48 576.04L848.31 575.83L850.17 575.66L852.05 575.54L853.95 575.47L855.87 575.44L857.79 575.47L859.7 575.54L861.58 575.66L863.43 575.83L865.27 576.04L867.08 576.3L868.86 576.6L870.61 576.95L872.33 577.34L874.02 577.77L875.68 578.24L877.3 578.75L878.89 579.29L880.43 579.88L881.94 580.5L883.41 581.16L883.93 581.41L883.9 580.4L883.93 579.19L884.05 577.98L884.24 576.78L884.51 575.61L884.84 574.44L885.25 573.29L885.73 572.16L886.28 571.05L886.89 569.96L887.56 568.89L888.3 567.84L889.11 566.81L889.97 565.8L890.89 564.82L891.87 563.86L892.9 562.93L893.99 562.02L895.13 561.14L896.32 560.3L897.56 559.48L898.85 558.69L900.19 557.93L901.57 557.21L903 556.52L904.47 555.86L905.98 555.24L907.52 554.66L909.11 554.11L910.73 553.6L912.39 553.13L914.08 552.7L915.8 552.31L917.55 551.97L919.33 551.66L921.14 551.4L922.98 551.19L924.83 551.02L926.71 550.9L928.62 550.83L930.54 550.8L932.46 550.83L934.36 550.9L936.24 551.02L938.1 551.19L939.93 551.4L941.74 551.66L943.52 551.97L945.27 552.31L947 552.7L948.69 553.13L950.34 553.6L951.97 554.11L953.55 554.66L955.1 555.24L956.61 555.86L958.08 556.52L959.5 557.21L960.89 557.93L962.22 558.69L963.51 559.48L964.75 560.3L965.95 561.14L967.09 562.02L968.18 562.93L969.21 563.86L970.19 564.82L971.11 565.8L971.97 566.81L972.77 567.84L973.51 568.89L974.19 569.96L974.8 571.05L975.35 572.16L975.82 573.29L976.23 574.44L976.57 575.61L976.83 576.78L977.03 577.98L977.14 579.19L977.18 580.4L977.14 581.62L977.03 582.83L976.83 584.02L976.57 585.2L976.23 586.37L975.82 587.51L975.35 588.64L974.8 589.76L974.19 590.85L973.51 591.92L972.77 592.97L971.97 594L971.11 595.01L970.19 595.99L969.21 596.95L968.18 597.88L967.09 598.79L965.95 599.66L964.75 600.51L963.51 601.33L962.22 602.12L960.89 602.88L959.5 603.6L958.08 604.29L956.61 604.95L955.1 605.57L953.55 606.15L951.97 606.7L950.34 607.21L948.69 607.68L947 608.11L945.27 608.5L943.52 608.84L941.74 609.14L939.93 609.4L938.1 609.62L936.24 609.79L934.36 609.91L932.46 609.98L930.54 610.01L928.62 609.98L926.71 609.91L924.83 609.79L922.98 609.62L921.14 609.4L919.33 609.14L917.55 608.84L915.8 608.5L914.08 608.11L912.39 607.68L910.73 607.21L909.11 606.7L907.52 606.15L905.98 605.57L904.47 604.95L903 604.29L902.48 604.04L902.51 605.04L902.48 606.26L902.36 607.47L902.17 608.66L901.9 609.84L901.57 611L901.16 612.15L900.68 613.28L900.14 614.39L899.52 615.49L898.85 616.56L898.11 617.61L897.31 618.64L896.44 619.65L895.52 620.63L894.54 621.59L893.51 622.52L892.42 623.42L891.28 624.3L890.09 625.15L888.85 625.97L887.56 626.76L886.22 627.51L884.84 628.24L883.41 628.93L881.94 629.59L880.43 630.21L878.89 630.79L877.3 631.34L875.68 631.85L874.02 632.32L872.33 632.75L870.61 633.13L868.86 633.48L867.08 633.78L865.27 634.04L863.43 634.26L861.58 634.42L859.7 634.55L857.79 634.62L855.87 634.64L853.95 634.62L852.05 634.55L850.17 634.42L848.31 634.26L846.48 634.04L844.67 633.78L842.89 633.48L841.14 633.13L839.41 632.75L837.72 632.32L836.07 631.85L834.45 631.34L832.86 630.79L831.31 630.21L829.8 629.59L828.33 628.93L826.91 628.24L825.53 627.51L824.19 626.76L822.9 625.97L821.66 625.15L820.46 624.3L819.32 623.42L818.23 622.52L817.91 622.23L817.76 622.35L816.62 623.23L815.42 624.08L814.18 624.9L812.89 625.69L811.55 626.44L810.17 627.17L808.75 627.86L807.28 628.51L805.77 629.13L804.22 629.72L802.63 630.27L801.01 630.77L799.36 631.24L797.67 631.67L795.94 632.06L794.19 632.41L792.41 632.71L790.6 632.97L788.77 633.18L786.91 633.35L785.03 633.47L783.13 633.55L781.21 633.57L779.29 633.55L777.38 633.47L775.5 633.35L773.65 633.18L771.81 632.97L770 632.71L768.22 632.41L766.47 632.06L764.75 631.67L763.06 631.24L761.4 630.77L759.78 630.27L758.19 629.72L756.65 629.13L755.14 628.51L753.67 627.86L752.24 627.17L750.86 626.44L749.52 625.69L748.23 624.9L746.99 624.08L745.8 623.23L744.66 622.35L743.57 621.45L742.54 620.52L741.56 619.56L740.64 618.58L739.88 617.69L739.7 617.93L738.84 618.93L737.92 619.92L736.94 620.87L735.9 621.81L734.82 622.71L733.68 623.59L732.48 624.44L731.24 625.26L729.95 626.04L728.61 626.8L727.23 627.52L725.81 628.21L724.34 628.87L722.83 629.49L721.28 630.08L719.69 630.62L718.07 631.13L716.41 631.6L714.72 632.03L713 632.42L711.25 632.77L709.47 633.07L707.66 633.33L705.83 633.54L703.97 633.71L702.09 633.83L700.19 633.9L698.27 633.93L696.35 633.9L694.44 633.83L692.56 633.71L690.71 633.54L688.87 633.33L687.06 633.07L685.28 632.77L683.53 632.42L681.81 632.03L680.12 631.6L678.46 631.13L676.84 630.62L675.25 630.08L673.71 629.49L672.2 628.87L670.73 628.21L669.3 627.52L667.92 626.8L666.58 626.04L665.29 625.26L664.05 624.44L662.86 623.59L661.72 622.71L660.63 621.81L659.59 620.87L658.62 619.92L657.7 618.93L656.83 617.93L656.03 616.9L655.37 615.95L655.03 616.56L654.35 617.63L653.61 618.68L652.81 619.71L651.95 620.72L651.03 621.7L650.05 622.66L649.01 623.59L647.93 624.5L646.79 625.37L645.59 626.22L644.35 627.04L643.06 627.83L641.72 628.59L640.34 629.31L638.92 630L637.45 630.66L635.94 631.28L634.39 631.86L632.8 632.41L631.18 632.92L629.52 633.39L627.83 633.82L626.11 634.2L624.36 634.55L622.58 634.85L620.77 635.11L618.94 635.33L617.08 635.5L615.2 635.62L613.3 635.69L611.38 635.71L609.46 635.69L607.55 635.62L605.67 635.5L603.82 635.33L601.98 635.11L600.17 634.85L598.39 634.55L596.64 634.2L594.92 633.82L593.23 633.39L591.57 632.92L589.95 632.41L588.36 631.86L586.82 631.28L585.31 630.66L583.84 630L582.41 629.31L581.03 628.59L579.69 627.83L578.4 627.04L577.16 626.22L575.97 625.37L574.83 624.5L573.74 623.59L572.7 622.66L571.73 621.7L571.14 621.07L570.81 621.5L569.95 622.5L569.03 623.49L568.05 624.44L567.01 625.38L565.93 626.28L564.79 627.16L563.59 628.01L562.35 628.83L561.06 629.61L559.72 630.37L558.34 631.09L556.92 631.79L555.45 632.44L553.94 633.06L552.39 633.65L550.8 634.19L549.18 634.7L547.52 635.17L545.83 635.6L544.11 635.99L542.36 636.34L540.58 636.64L538.77 636.9L536.94 637.11L535.08 637.28L533.2 637.4L531.3 637.48L529.38 637.5L527.46 637.48L525.55 637.4L523.67 637.28L521.82 637.11L519.98 636.9L518.17 636.64L516.39 636.34L514.64 635.99L512.92 635.6L511.23 635.17L509.57 634.7L507.95 634.19L506.36 633.65L504.82 633.06L503.31 632.44L501.84 631.79L500.41 631.09L499.03 630.37L497.69 629.61L496.4 628.83L495.16 628.01L493.97 627.16L492.83 626.28L491.74 625.38L490.7 624.44L489.73 623.49L488.81 622.5L487.94 621.5L487.14 620.47L486.82 620.02L486.36 620.37L485.17 621.22L483.92 622.04L482.63 622.83L481.3 623.59L479.91 624.31L478.49 625L477.02 625.66L475.51 626.28L473.96 626.86L472.38 627.41L470.75 627.92L469.1 628.39L467.41 628.82L465.69 629.21L463.93 629.55L462.15 629.85L460.34 630.11L458.51 630.33L456.65 630.5L454.77 630.62L452.87 630.69L450.95 630.72L449.03 630.69L447.13 630.62L445.25 630.5L443.39 630.33L441.55 630.11L439.75 629.85L437.97 629.55L436.21 629.21L434.49 628.82L432.8 628.39L431.14 627.92L429.52 627.41L427.94 626.86L426.39 626.28L424.88 625.66L423.41 625L421.98 624.31L420.6 623.59L419.27 622.83L417.98 622.04L416.73 621.22L415.54 620.37L414.4 619.5L413.31 618.59L412.28 617.66L411.3 616.7L410.38 615.72L409.52 614.71L408.72 613.68L408.47 613.33L407.38 613.95L406 614.67L404.58 615.36L403.11 616.02L401.6 616.64L400.05 617.22L398.46 617.77L396.84 618.28L395.18 618.75L393.49 619.18L391.77 619.56L390.02 619.91L388.24 620.21L386.43 620.47L384.6 620.69L382.74 620.86L380.86 620.98L378.96 621.05L377.04 621.07L375.12 621.05L373.21 620.98L371.33 620.86L369.48 620.69L367.64 620.47L365.83 620.21L364.05 619.91L362.3 619.56L360.58 619.18L358.89 618.75L357.23 618.28L355.61 617.77L354.02 617.22L352.48 616.64L350.97 616.02L349.5 615.36L348.07 614.67L346.69 613.95L345.35 613.19L344.06 612.4L342.82 611.58L341.63 610.73L340.49 609.86L339.4 608.95L338.36 608.02L337.39 607.06L336.47 606.08L335.6 605.07L334.8 604.04L334.06 602.99L333.39 601.92L332.77 600.83L332.23 599.71L331.96 599.08L330.57 599.56L328.95 600.07L327.29 600.54L325.6 600.97L323.88 601.35L322.13 601.7L320.35 602L318.54 602.26L316.7 602.48L314.85 602.65L312.97 602.77L311.06 602.84L309.14 602.86L307.22 602.84L305.32 602.77L303.44 602.65L301.58 602.48L299.75 602.26L297.94 602L296.16 601.7L294.41 601.35L292.68 600.97L290.99 600.54L289.34 600.07L287.72 599.56L286.13 599.01L284.58 598.43L283.07 597.81L281.6 597.15L280.18 596.46L278.8 595.74L277.46 594.98L276.17 594.19L274.93 593.37L273.73 592.52L272.59 591.65L271.5 590.74L270.47 589.81L269.49 588.85L268.57 587.87L267.71 586.86L266.91 585.83L266.17 584.78L265.49 583.71L264.88 582.62L264.33 581.5L263.86 580.37L263.45 579.23L263.11 578.06L262.85 576.88L262.65 575.69L262.54 574.48L262.5 573.26L262.54 572.04L262.65 570.84L262.85 569.64L263.11 568.46L263.45 567.3L263.86 566.15L264.33 565.02L264.88 563.91L265.49 562.82L266.17 561.75L266.91 560.69L267.71 559.66L268.57 558.66L269.49 557.68L270.47 556.72L271.5 555.79L272.59 554.88L273.73 554L274.93 553.15L276.17 552.34L277.46 551.55L278.8 550.79L280.18 550.07L281.6 549.38L283.07 548.72L284.58 548.1L286.13 547.51L287.72 546.97L289.34 546.46L290.99 545.99L292.68 545.56L294.41 545.17L296.16 544.83L297.94 544.52L299.75 544.26L301.58 544.05L303.44 543.88L305.32 543.76L307.22 543.69L309.14 543.66L311.06 543.69L312.97 543.76Z" id="a5rSpBZJE8"></path></defs><g><g><g><use xlink:href="#afefC39dl" opacity="1" fill="#e28a1c" fill-opacity="1"></use><g><use xlink:href="#afefC39dl" opacity="1" fill-opacity="0" stroke="#000000" stroke-width="2" stroke-opacity="1"></use></g></g><g><use xlink:href="#a1Z2mG5nls" opacity="1" fill="#e28a1c" fill-opacity="1"></use><g><use xlink:href="#a1Z2mG5nls" opacity="1" fill-opacity="0" stroke="#000000" stroke-width="2" stroke-opacity="1"></use></g></g><g><use xlink:href="#a5rSpBZJE8" opacity="1" fill="#e28a1c" fill-opacity="1"></use><g><use xlink:href="#a5rSpBZJE8" opacity="1" fill-opacity="0" stroke="#000000" stroke-width="2" stroke-opacity="1"></use></g></g></g></g></svg>